<svg xmlns="http://www.w3.org/2000/svg">

  <symbol id="facebook" viewBox="0 0 64 64">
    <path d="M64,3.53v56.94c0,0,0,0,0,0c0,1.95-1.58,3.53-3.53,3.53H44.19V39.25h8.34l1.25-9.69h-9.59v-6.17c0-2.8,0.78-4.71,4.79-4.71
  	h5.09v-8.64c-0.88-0.12-3.92-0.38-7.45-0.38c-1.38,0-2.68,0.16-3.89,0.47c-0.15,0.04-0.3,0.08-0.45,0.12
  	c-0.1,0.03-0.19,0.06-0.29,0.09c-0.15,0.05-0.29,0.1-0.43,0.15c-0.05,0.02-0.09,0.03-0.14,0.05c-0.37,0.14-0.74,0.3-1.09,0.48
  	c0,0,0,0,0,0c-0.13,0.07-0.26,0.13-0.39,0.2c-0.04,0.02-0.09,0.05-0.13,0.07c-0.51,0.29-0.98,0.61-1.43,0.98
  	c-0.26,0.21-0.51,0.43-0.75,0.67c-0.03,0.03-0.07,0.07-0.1,0.1c-2.12,2.16-3.34,5.31-3.34,9.38v7.13h-8.31v9.69h8.31V64H3.53
  	C1.58,64,0,62.42,0,60.47V3.53C0,1.58,1.58,0,3.53,0h56.94C62.42,0,64,1.58,64,3.53z"/>
  </symbol>

  <symbol id="twitter" viewBox="0 0 64 52.01">
    <path class="st0" d="M20.13,52.01c24.15,0,37.36-20.01,37.36-37.36c0-0.57-0.01-1.13-0.04-1.7c2.56-1.85,4.79-4.17,6.55-6.8
	  c-2.35,1.05-4.88,1.75-7.54,2.07c2.71-1.63,4.79-4.2,5.77-7.26c-2.54,1.5-5.35,2.6-8.34,3.19C51.5,1.6,48.09,0,44.31,0
	  c-7.25,0-13.13,5.88-13.13,13.13c0,1.03,0.12,2.03,0.34,2.99C20.61,15.57,10.93,10.35,4.45,2.4C3.33,4.34,2.68,6.6,2.68,9
	  c0,4.56,2.32,8.58,5.84,10.93c-2.15-0.07-4.18-0.66-5.95-1.64c0,0.05,0,0.11,0,0.17c0,6.36,4.53,11.67,10.53,12.87
	  c-1.1,0.3-2.26,0.46-3.46,0.46c-0.85,0-1.67-0.08-2.47-0.24c1.67,5.22,6.52,9.01,12.27,9.12C14.95,44.2,9.28,46.3,3.13,46.3
	  c-1.06,0-2.1-0.06-3.13-0.18C5.81,49.84,12.71,52.01,20.13,52.01"/>
  </symbol>

  <symbol id="instagram" viewBox="0 0 64 64">
    <path d="M32,5.77c8.54,0,9.56,0.03,12.93,0.19c3.12,0.14,4.81,0.66,5.94,1.1c1.49,0.58,2.56,1.27,3.68,2.39
		c1.12,1.12,1.81,2.19,2.39,3.68c0.44,1.13,0.96,2.82,1.1,5.94c0.15,3.37,0.19,4.39,0.19,12.93s-0.03,9.56-0.19,12.93
		c-0.14,3.12-0.66,4.81-1.1,5.94c-0.58,1.49-1.27,2.56-2.39,3.68c-1.12,1.12-2.19,1.81-3.68,2.39c-1.13,0.44-2.82,0.96-5.94,1.1
		c-3.37,0.15-4.39,0.19-12.93,0.19s-9.56-0.03-12.93-0.19c-3.12-0.14-4.81-0.66-5.94-1.1c-1.49-0.58-2.56-1.27-3.68-2.39
		c-1.12-1.12-1.81-2.19-2.39-3.68c-0.44-1.13-0.96-2.82-1.1-5.94C5.8,41.56,5.77,40.54,5.77,32s0.03-9.56,0.19-12.93
		c0.14-3.12,0.66-4.81,1.1-5.94c0.58-1.49,1.27-2.56,2.39-3.68c1.12-1.12,2.19-1.81,3.68-2.39c1.13-0.44,2.82-0.96,5.94-1.1
		C22.44,5.8,23.46,5.77,32,5.77 M32,0c-8.69,0-9.78,0.04-13.19,0.19c-3.41,0.16-5.73,0.7-7.77,1.49C8.93,2.5,7.15,3.59,5.37,5.37
		C3.59,7.15,2.5,8.93,1.68,11.04c-0.79,2.04-1.33,4.36-1.49,7.77C0.04,22.22,0,23.31,0,32c0,8.69,0.04,9.78,0.19,13.19
		c0.16,3.41,0.7,5.73,1.49,7.77c0.82,2.1,1.91,3.89,3.69,5.67c1.78,1.78,3.56,2.87,5.67,3.69c2.04,0.79,4.36,1.33,7.77,1.49
		C22.22,63.96,23.31,64,32,64s9.78-0.04,13.19-0.19c3.41-0.16,5.73-0.7,7.77-1.49c2.1-0.82,3.89-1.91,5.67-3.69
		c1.78-1.78,2.87-3.56,3.69-5.67c0.79-2.04,1.33-4.36,1.49-7.77C63.96,41.78,64,40.69,64,32s-0.04-9.78-0.19-13.19
		c-0.16-3.41-0.7-5.73-1.49-7.77c-0.82-2.1-1.91-3.89-3.69-5.67c-1.78-1.78-3.56-2.87-5.67-3.69c-2.04-0.79-4.36-1.33-7.77-1.49
		C41.78,0.04,40.69,0,32,0L32,0z"/>
    <path d="M32,15.57c-9.08,0-16.43,7.36-16.43,16.43c0,9.08,7.36,16.43,16.43,16.43S48.43,41.08,48.43,32
		C48.43,22.92,41.08,15.57,32,15.57z M32,42.67c-5.89,0-10.67-4.78-10.67-10.67c0-5.89,4.78-10.67,10.67-10.67
		c5.89,0,10.67,4.78,10.67,10.67C42.67,37.89,37.89,42.67,32,42.67z"/>
    <circle cx="49.08" cy="14.92" r="3.84"/>
  </symbol>

  <symbol id="phone" viewBox="0 0 348.077 348.077">
    <path d="M340.273,275.083l-53.755-53.761c-10.707-10.664-28.438-10.34-39.518,0.744l-27.082,27.076
    c-1.711-0.943-3.482-1.928-5.344-2.973c-17.102-9.476-40.509-22.464-65.14-47.113c-24.704-24.701-37.704-48.144-47.209-65.257
    c-1.003-1.813-1.964-3.561-2.913-5.221l18.176-18.149l8.936-8.947c11.097-11.1,11.403-28.826,0.721-39.521L73.39,8.194
    C62.708-2.486,44.969-2.162,33.872,8.938l-15.15,15.237l0.414,0.411c-5.08,6.482-9.325,13.958-12.484,22.02
    C3.74,54.28,1.927,61.603,1.098,68.941C-6,127.785,20.89,181.564,93.866,254.541c100.875,100.868,182.167,93.248,185.674,92.876
    c7.638-0.913,14.958-2.738,22.397-5.627c7.992-3.122,15.463-7.361,21.941-12.43l0.331,0.294l15.348-15.029
    C350.631,303.527,350.95,285.795,340.273,275.083z"/>
  </symbol>

  <symbol id="email" viewBox="0 0 437.676 437.676">
    <polygon points="218.841,256.659 19.744,81.824 417.931,81.824 	"/>
    <polygon points="139.529,218.781 0,341.311 0,96.252 	"/>
    <polygon points="157.615,234.665 218.841,288.427 280.055,234.665 418.057,355.852 19.619,355.852 	"/>
    <polygon points="298.141,218.787 437.676,96.252 437.676,341.311 	"/>
  </symbol>

</svg>



