<?xml version="1.0" encoding="utf-8"?>
<!-- Generator: Adobe Illustrator 23.1.0, SVG Export Plug-In . SVG Version: 6.00 Build 0)  -->
<svg version="1.1" id="Layer_1" xmlns="http://www.w3.org/2000/svg" xmlns:xlink="http://www.w3.org/1999/xlink" x="0px" y="0px"
	 viewBox="0 0 100 81.26" style="enable-background:new 0 0 100 81.26;" xml:space="preserve">
<g>
	<path d="M18.9,19.13c-4.83,6.04-7.24,12.15-7.24,18.35c0,2.63,0.32,4.88,0.94,6.77C16.17,41.42,20.16,40,24.57,40
		c5.77,0,10.65,1.87,14.65,5.59c3.99,3.73,5.98,8.74,5.98,15.04c0,3.89-0.94,7.4-2.84,10.55c-1.89,3.15-4.41,5.62-7.56,7.4
		c-3.15,1.79-6.56,2.68-10.24,2.68c-8.29,0-14.64-3.41-19.06-10.24C1.84,65.35,0,58.27,0,49.76c0-10.81,2.76-20.5,8.27-29.05
		C13.78,12.15,22.1,5.25,33.23,0l2.99,5.83C29.5,8.66,23.73,13.1,18.9,19.13z M73.7,19.13c-4.83,6.04-7.24,12.15-7.24,18.35
		c0,2.63,0.31,4.88,0.94,6.77C71.08,41.42,75.06,40,79.37,40c5.88,0,10.79,1.87,14.72,5.59c3.94,3.73,5.91,8.74,5.91,15.04
		c0,5.88-1.99,10.79-5.98,14.72c-3.99,3.94-8.87,5.91-14.65,5.91c-8.29,0-14.64-3.41-19.06-10.24c-3.67-5.67-5.51-12.76-5.51-21.26
		c0-10.81,2.76-20.5,8.27-29.05C68.58,12.15,76.9,5.25,88.03,0l2.99,5.83C84.3,8.66,78.53,13.1,73.7,19.13z"/>
</g>
</svg>
